
<svg width="36px" height="32px" viewBox="0 0 36 32" version="1.1" xmlns="http://www.w3.org/2000/svg" xmlns:xlink="http://www.w3.org/1999/xlink">
    <!-- Generator: Sketch 51 (57462) - http://www.bohemiancoding.com/sketch -->
    <desc>Created with Sketch.</desc>
    <defs></defs>
    <g id="Page-1" stroke="none" stroke-width="1" fill="none" fill-rule="evenodd">
        <g id="car" transform="translate(-6.000000, -10.000000)">
            <path d="M37.84,12.02 C37.44,10.84 36.32,10 35,10 L13,10 C11.68,10 10.58,10.84 10.16,12.02 L6,24 L6,40 C6,41.1 6.9,42 8,42 L10,42 C11.1,42 12,41.1 12,40 L12,38 L36,38 L36,40 C36,41.1 36.9,42 38,42 L40,42 C41.1,42 42,41.1 42,40 L42,24 L37.84,12.02 Z M13,32 C11.34,32 10,30.66 10,29 C10,27.34 11.34,26 13,26 C14.66,26 16,27.34 16,29 C16,30.66 14.66,32 13,32 Z M35,32 C33.34,32 32,30.66 32,29 C32,27.34 33.34,26 35,26 C36.66,26 38,27.34 38,29 C38,30.66 36.66,32 35,32 Z M10,22 L13,13 L35,13 L38,22 L10,22 Z" id="Shape" fill="#F7D0CB" fill-rule="nonzero"></path>
            <polygon id="Shape" points="0 0 48 0 48 48 0 48"></polygon>
        </g>
    </g>
</svg>
